Coordinates
version=1
nRows=9
nColumns=36
inDegrees=yes

Units are S.I. units (second, meters, Newtons, ...)
If the header above contains a line with 'inDegrees', this indicates whether rotational values are in degrees (yes) or radians (no).

endheader
time	pelvis_tilt	pelvis_list	pelvis_rotation	pelvis_tx	pelvis_ty	pelvis_tz	hip_flexion_r	hip_adduction_r	hip_rotation_r	knee_angle_r	knee_angle_r_beta	ankle_angle_r	subtalar_angle_r	mtp_angle_r	hip_flexion_l	hip_adduction_l	hip_rotation_l	knee_angle_l	knee_angle_l_beta	ankle_angle_l	subtalar_angle_l	mtp_angle_l	lumbar_extension	lumbar_bending	lumbar_rotation	arm_flex_r	arm_add_r	arm_rot_r	elbow_flex_r	pro_sup_r	arm_flex_l	arm_add_l	arm_rot_l	elbow_flex_l	pro_sup_l
      0.00000000	     -3.74762034	     -2.28362585	     -1.93055447	      0.01796354	      0.92464910	      0.03486705	     12.29889658	      0.94651044	      2.55508842	     16.81864052	      0.29354065	     -4.64225463	    -27.47535810	     -6.22278602	      7.62758814	      1.41521464	     -2.12826361	      1.41532002	      0.02470199	      3.26098379	     -9.42887766	     -6.22278602	     -4.39694093	      0.58795711	     -2.35253851	     25.00564658	    -10.44100765	     22.66870129	     68.63417679	     85.64398461	     23.39728711	    -13.56284579	     36.50533423	     82.24003416	     82.75549268
      0.01666670	     -5.04316666	     -1.37235075	     -1.36178098	      0.01855782	      0.92023949	      0.03590301	     14.02188854	      0.21073596	      2.47900999	     17.98011560	      0.31381222	      0.88174523	    -23.88551229	     -6.86925459	      9.05127638	      2.79814056	     -1.46364091	      2.12384791	      0.03706814	      4.39872887	     -8.78955817	     -6.86925459	     -2.78384954	     -0.35129583	     -1.80885304	     25.20077718	     -8.38733666	     19.07670601	     64.81698216	     85.18910284	     26.10952012	    -13.59350506	     42.29053145	     81.63978141	     81.74911912
      0.03333330	     -5.88960757	     -0.48413513	     -1.58178615	      0.01975671	      0.92275724	      0.03793948	     14.27836540	     -0.57440493	      1.94749492	     16.77353939	      0.29275349	      2.74839931	    -22.67061595	     -7.13666948	      9.74510782	      3.59790011	     -2.25241662	      1.88043889	      0.03281985	      4.53258576	     -7.80780817	     -7.13666948	     -1.76002539	     -1.41361511	     -1.61701773	     26.55313391	     -7.91254425	     20.07589903	     61.67753456	     85.47885183	     27.74677165	    -12.98347039	     45.64868087	     82.04044384	     80.27586513
      0.05000000	     -5.96535612	     -0.14980834	     -1.45244114	      0.01992922	      0.91957225	      0.04003520	     13.86893184	     -0.94681122	      1.60961715	     15.63397692	      0.27286437	      3.34682815	    -22.08360770	     -7.23417855	      9.62426229	      3.91638776	     -2.08898820	      1.54689666	      0.02699844	      4.44465907	     -8.02431362	     -7.23417855	     -1.78900192	     -1.85691987	     -1.04481576	     28.25528492	     -7.73915662	     20.83618427	     58.78233206	     82.87406377	     29.94674068	    -11.86675141	     50.28375962	     82.53650555	     78.41666449
      0.06666670	     -6.28090437	     -0.02835838	     -1.39271388	      0.01960482	      0.91638971	      0.04090872	     13.73387691	     -1.06264203	      1.25912324	     14.91012488	      0.26023077	      3.54463838	    -21.62562079	     -7.37557956	      9.81782560	      4.05328519	     -1.91973865	      1.19572918	      0.02086941	      4.30918528	     -8.38425235	     -7.37557956	     -1.43416028	     -1.76431680	     -0.90153003	     30.17084795	     -7.29899513	     21.10905305	     55.79516163	     85.14603915	     30.33301621	    -10.33794162	     53.25013225	     83.63122011	     80.70866684
      0.08333330	     -6.39419792	      0.03315448	     -1.38818817	      0.01957986	      0.91983155	      0.04122980	     13.37988646	     -1.09852892	      0.81976791	     13.84463227	      0.24163442	      3.82182610	    -20.68867047	     -7.42983309	      9.80356764	      4.04529591	     -2.46623554	      0.93525050	      0.01632320	      4.62853954	     -7.21506407	     -7.42983309	     -1.42904673	     -1.75027922	      0.07331677	     30.93808646	     -7.31712501	     20.56544641	     53.93475331	     78.67210869	     31.27139106	     -8.15986522	     57.35333745	     83.65345319	     75.60762979
      0.10000000	     -6.87915435	     -0.14773560	     -1.42275427	      0.01821259	      0.91773090	      0.04255799	     13.49063264	     -0.86371383	      0.67615068	     12.74818134	      0.22249774	      2.99763975	    -21.02209381	     -7.47695220	     10.27759210	      3.76420847	     -2.06423208	      0.81855639	      0.01428650	      4.47390232	     -7.92685383	     -7.47695220	     -0.85052079	     -1.23020028	     -0.20524895	     32.62187498	     -6.75704189	     21.25093331	     50.84613147	     84.15107896	     30.67687269	     -6.69772053	     57.93365949	     84.05669021	     82.22465112
      0.11666670	     -7.29966032	     -0.29730123	     -1.51741807	      0.01763185	      0.91860840	      0.04408421	     13.43289592	     -0.63616382	      0.37847631	     11.46518021	      0.20010514	      2.46171951	    -20.75936560	     -7.49329843	     10.76531463	      3.50478164	     -1.91324192	      0.66610523	      0.01162573	      4.38877963	     -8.01331890	     -7.49329843	     -0.56062912	     -0.87598896	     -0.04479417	     33.73351066	     -6.47768772	     21.19681422	     48.67610821	     83.04064222	     30.81178320	     -4.83673875	     59.64204516	     83.71276758	     82.01815557
      0.13333330	     -7.73322619	     -0.36436788	     -1.62619548	      0.01627146	      0.92036268	      0.04528244	     13.29795382	     -0.47628990	      0.08872353	     10.07059089	      0.17576497	      2.14283017	    -20.08763476	     -7.49739897	     11.34160407	      3.29555340	     -2.05582203	      0.57921566	      0.01010922	      4.21656993	     -7.81646631	     -7.49739897	     -0.28508993	     -0.61291351	     -0.10922492	     34.90465673	     -6.02883539	     21.15592365	     46.28781337	     82.00066630	     30.97584856	     -3.11943487	     60.86645205	     83.44196051	     81.41524146
